<svg width="280" height="100" viewBox="0 0 280 100" fill="none" xmlns="http://www.w3.org/2000/svg">
<path fill-rule="evenodd" clip-rule="evenodd" d="M74.728 69C80.2509 69 84.728 64.5229 84.728 59C84.728 53.4772 80.2509 49 74.728 49C69.2052 49 64.728 53.4772 64.728 59C64.728 64.5229 69.2052 69 74.728 69ZM74.728 77C84.6692 77 92.728 68.9411 92.728 59C92.728 49.0589 84.6692 41 74.728 41C64.7869 41 56.728 49.0589 56.728 59C56.728 68.9411 64.7869 77 74.728 77Z" fill="#1A53FF"/>
<path fill-rule="evenodd" clip-rule="evenodd" d="M132.728 22C132.728 21.4477 132.28 21 131.728 21H125.728C125.176 21 124.728 21.4477 124.728 22V44.0311C121.868 42.1165 118.428 41 114.728 41C104.787 41 96.728 49.0589 96.728 59C96.728 68.9411 104.787 77 114.728 77C124.669 77 132.728 68.9411 132.728 59V22ZM124.728 59C124.728 53.4772 120.251 49 114.728 49C109.205 49 104.728 53.4772 104.728 59C104.728 64.5229 109.205 69 114.728 69C120.251 69 124.728 64.5229 124.728 59Z" fill="#1A53FF"/>
<path d="M43.5116 41.3459C46.6757 41.9752 49.6063 43.442 52.0015 45.585C52.4131 45.9532 52.4113 46.5887 52.0208 46.9792L47.7782 51.2218C47.3876 51.6123 46.7574 51.6079 46.33 51.2581C44.6059 49.8468 42.4019 49 40 49C34.4772 49 30 53.4772 30 59C30 64.5229 34.4772 69 40 69C42.4019 69 44.6059 68.1532 46.33 66.7419C46.7574 66.3921 47.3877 66.3876 47.7782 66.7782L52.0332 71.0332C52.4189 71.4188 52.4233 72.0415 52.0474 72.4366C51.8788 72.614 51.7971 72.7029 52 72.5C49.4878 74.9989 46.9876 75.9627 43.5116 76.6541C42.3876 76.8777 41.2503 76.9924 40.1151 76.9996C40.0768 76.9999 40.0384 77 40 77C39.9637 77 39.9274 76.9999 39.8912 76.9997C37.5754 76.9857 35.2723 76.5248 33.1117 75.6298C29.8226 74.2675 27.0114 71.9604 25.0335 69.0003C23.0557 66.0402 22 62.5601 22 59C22 55.4399 23.0557 51.9598 25.0335 48.9997C27.0114 46.0397 29.8226 43.7325 33.1117 42.3702C35.2712 41.4757 37.5731 41.0148 39.8877 41.0003C39.9251 41.0001 39.9625 41 40 41C40.0413 41 40.0825 41.0001 40.1237 41.0004C41.256 41.0082 42.3904 41.1228 43.5116 41.3459Z" fill="#1A53FF"/>
<path d="M189.364 41.7071C188.973 41.3166 188.34 41.3166 187.95 41.7071L183.707 45.9497C183.317 46.3403 183.317 46.9734 183.707 47.364L195.426 59.0831L184.135 70.374C183.745 70.7645 183.745 71.3977 184.135 71.7882L188.378 76.0308C188.769 76.4214 189.402 76.4214 189.792 76.0308L201.083 64.74L212.497 76.1534C212.887 76.5439 213.52 76.5439 213.911 76.1534L218.153 71.9108C218.544 71.5203 218.544 70.8871 218.153 70.4966L206.74 59.0831L218.382 47.4407C218.773 47.0502 218.773 46.417 218.382 46.0265L214.14 41.7839C213.749 41.3934 213.116 41.3934 212.726 41.7839L201.083 53.4263L189.364 41.7071Z" fill="#B0BCDD"/>
<path d="M229.453 41.7071C229.063 41.3166 228.43 41.3166 228.039 41.7071L223.796 45.9497C223.406 46.3403 223.406 46.9734 223.796 47.364L235.802 59.3699L224.247 70.9251C223.857 71.3156 223.857 71.9488 224.247 72.3393L228.49 76.582C228.88 76.9725 229.514 76.9725 229.904 76.582L241.459 65.0268L241.513 65.0805L247.17 59.4236L247.116 59.3699L259.065 47.4211C259.456 47.0306 259.456 46.3974 259.065 46.0069L254.822 41.7642C254.432 41.3737 253.799 41.3737 253.408 41.7642L241.459 53.7131L229.453 41.7071Z" fill="#B0BCDD"/>
<path fill-rule="evenodd" clip-rule="evenodd" d="M170.728 73.9689V76C170.728 76.5523 171.176 77 171.728 77H177.728C178.28 77 178.728 76.5523 178.728 76V59C178.728 49.0589 170.669 41 160.728 41C150.787 41 142.728 49.0589 142.728 59C142.728 68.9411 150.787 77 160.728 77C164.428 77 167.868 75.8835 170.728 73.9689ZM170.728 59C170.728 64.5229 166.251 69 160.728 69C155.205 69 150.728 64.5229 150.728 59C150.728 53.4772 155.205 49 160.728 49C166.251 49 170.728 53.4772 170.728 59Z" fill="#B0BCDD"/>
<path d="M137 11C137 10.4477 137.448 10 138 10C138.552 10 139 10.4477 139 11V89C139 89.5523 138.552 90 138 90C137.448 90 137 89.5523 137 89V11Z" fill="#B0BCDD"/>
</svg>
