<svg xmlns="http://www.w3.org/2000/svg" viewBox="-347 249.7 48 48.000001">
  <style id="style4485">
    .st0{opacity:0.8;fill:currentColor;} .st1{fill:currentColor;}
  </style>
  <g id="g4544">
    <path class="st0" d="M-337.1 273.16l-4.23-7.33h8.46z"/>
    <path class="st1" d="M-318.32 273.16l-4.23-7.33h8.46z"/>
    <path class="st0" d="M-337.53 273.43h-8.45l4.22-7.33z"/>
    <path class="st1" d="M-309.38 273.43h-8.46l4.23-7.33z"/>
    <path class="st0" d="M-332.4 265.03l-4.22-7.33h8.46z"/>
    <path class="st1" d="M-304.24 265.03l-4.23-7.33h8.45z"/>
    <path class="st1" d="M-322.97 265.03l-4.28-7.33h8.5z"/>
    <path class="st0" d="M-332.87 265.3h-8.46l4.23-7.33z"/>
    <path class="st0" d="M-323.45 265.3h-8.46l4.2-7.33z"/>
    <path class="st1" d="M-314.1 265.3h-8.45l4.23-7.33z"/>
    <path class="st1" d="M-308.9 273.16l-4.23-7.33h8.46z"/>
    <path class="st1" d="M-304.67 265.3h-8.46l4.23-7.33z"/>
    <path class="st1" d="M-314.1 281.57h-8.45l4.23-7.33z"/>
    <path class="st1" d="M-313.6 281.3l-4.24-7.33h8.46z"/>
    <path class="st1" d="M-318.32 289.43l-4.23-7.33h8.46z"/>
    <path class="st1" d="M-304.67 281.57h-8.46l4.23-7.33z"/>
    <path class="st1" d="M-308.9 289.43l-4.23-7.33h8.46z"/>
    <path class="st0" d="M-341.76 281.3l-4.22-7.33h8.45z"/>
    <path class="st0" d="M-332.87 281.57h-8.46l4.23-7.33z"/>
    <path class="st0" d="M-337.1 289.43l-4.23-7.33h8.46z"/>
    <path class="st0" d="M-327.68 289.43l-4.23-7.33h8.43z"/>
    <path class="st0" d="M-328.16 289.7h-8.46l4.23-7.33z"/>
    <path class="st1" d="M-318.75 289.7h-8.5l4.28-7.33z"/>
    <path class="st1" d="M-300.02 289.7h-8.45l4.23-7.33z"/>
  </g>
</svg>