<svg width="16" height="16" xmlns="http://www.w3.org/2000/svg" viewBox="0 0 100 100" preserveAspectRatio="xMidYMid" class="uil-default"><path fill="none" class="bk" d="M0 0h100v100H0z"/><rect x="42" y="42" width="16" height="16" rx="10" ry="10" fill="#3c4245" transform="translate(0 -30)"><animate attributeName="opacity" from="1" to="0" dur="1s" begin="0s" repeatCount="indefinite"/></rect><rect x="42" y="42" width="16" height="16" rx="10" ry="10" fill="#3c4245" transform="rotate(45 86.213 65)"><animate attributeName="opacity" from="1" to="0" dur="1s" begin="0.125s" repeatCount="indefinite"/></rect><rect x="42" y="42" width="16" height="16" rx="10" ry="10" fill="#3c4245" transform="rotate(90 65 65)"><animate attributeName="opacity" from="1" to="0" dur="1s" begin="0.25s" repeatCount="indefinite"/></rect><rect x="42" y="42" width="16" height="16" rx="10" ry="10" fill="#3c4245" transform="rotate(135 56.213 65)"><animate attributeName="opacity" from="1" to="0" dur="1s" begin="0.375s" repeatCount="indefinite"/></rect><rect x="42" y="42" width="16" height="16" rx="10" ry="10" fill="#3c4245" transform="rotate(180 50 65)"><animate attributeName="opacity" from="1" to="0" dur="1s" begin="0.5s" repeatCount="indefinite"/></rect><rect x="42" y="42" width="16" height="16" rx="10" ry="10" fill="#3c4245" transform="rotate(-135 43.787 65)"><animate attributeName="opacity" from="1" to="0" dur="1s" begin="0.625s" repeatCount="indefinite"/></rect><rect x="42" y="42" width="16" height="16" rx="10" ry="10" fill="#3c4245" transform="rotate(-90 35 65)"><animate attributeName="opacity" from="1" to="0" dur="1s" begin="0.75s" repeatCount="indefinite"/></rect><rect x="42" y="42" width="16" height="16" rx="10" ry="10" fill="#3c4245" transform="rotate(-45 13.787 65)"><animate attributeName="opacity" from="1" to="0" dur="1s" begin="0.875s" repeatCount="indefinite"/></rect></svg>