<svg version="1.1" id="Layer_1" xmlns="http://www.w3.org/2000/svg" x="0" y="0" viewBox="-276 249.7 288.4 96.6" xml:space="preserve"><style>.st0{fill:#4b5c65}</style><g id="XMLID_458_"><g id="XMLID_579_"><path id="XMLID_588_" class="st0" d="M-110.8 303.3v.1c.1 3.4-.8 5.9-2.6 7.6-1.8 1.7-4.4 2.5-7.7 2.5-3.4 0-6.1-1-8.1-3s-3-4.9-3-8.6v-9.4c0-3.7 1-6.5 2.9-8.6 1.9-2 4.6-3 7.8-3 3.5 0 6.1.8 8 2.5 1.9 1.7 2.8 4.2 2.7 7.6v.1h-6c0-2-.4-3.5-1.1-4.3-.7-.8-1.9-1.2-3.6-1.2-1.5 0-2.7.6-3.5 1.7-.8 1.1-1.2 2.8-1.2 5.1v9.4c0 2.3.4 4 1.2 5.1.8 1.1 2.1 1.7 3.7 1.7 1.5 0 2.6-.4 3.3-1.2.7-.8 1-2.2 1-4.3h6.2v.2z"/><path id="XMLID_586_" class="st0" d="M-98.3 297.1h.1l2.6-7.5h6.9l-5.9 11.6 6.1 11.9h-6.9l-2.8-7.8h-.1l-2.7 7.8h-6.9l6.1-11.9-6-11.6h6.9l2.6 7.5z"/><path id="XMLID_584_" class="st0" d="M-73.1 281.5h4.4v22.3c0 3-.8 5.4-2.4 7.2-1.6 1.8-3.7 2.7-6.2 2.7-2.7 0-4.8-.8-6.4-2.4-1.6-1.6-2.3-3.9-2.3-6.9l.1-.1h4.2c0 2 .4 3.6 1.2 4.6s1.9 1.5 3.2 1.5c1.2 0 2.2-.6 3-1.8.8-1.2 1.2-2.7 1.2-4.7v-22.4z"/><path id="XMLID_582_" class="st0" d="M-47.1 305.2c0-1.5-.4-2.6-1.2-3.6-.8-.9-2.3-1.8-4.4-2.6-3-.9-5.3-2.1-6.9-3.6-1.6-1.5-2.4-3.4-2.4-5.9s.9-4.6 2.6-6.2c1.8-1.6 4-2.4 6.8-2.4 2.9 0 5.3.9 7.1 2.7 1.8 1.8 2.6 4.1 2.6 6.8v.1h-4.2c0-1.9-.5-3.4-1.5-4.5s-2.3-1.7-3.9-1.7-2.8.5-3.6 1.5c-.9 1-1.3 2.2-1.3 3.7 0 1.4.5 2.5 1.4 3.4.9.9 2.5 1.7 4.6 2.5 2.9.9 5.1 2.2 6.6 3.7s2.3 3.5 2.3 5.9c0 2.6-.9 4.6-2.7 6.2-1.8 1.5-4.1 2.3-7 2.3-2.8 0-5.2-.8-7.3-2.5-2.1-1.7-3.1-4-3-7.1v-.1h4.3c0 2.1.6 3.8 1.7 4.8 1.1 1.1 2.6 1.6 4.2 1.6s2.9-.5 3.9-1.4c.9-.8 1.3-2.1 1.3-3.6z"/></g></g><linearGradient id="XMLID_2_" gradientUnits="userSpaceOnUse" x1="-230.67" y1="306.26" x2="-213.131" y2="306.26" gradientTransform="matrix(1 0 0 -1 0 596.64)"><stop offset="0" stop-color="#8ab1d5"/><stop offset=".5" stop-color="#70a3cd"/><stop offset=".685" stop-color="#5798c6"/><stop offset=".871" stop-color="#3f90c1"/><stop offset="1" stop-color="#358dbf"/></linearGradient><path id="XMLID_409_" fill="url(#XMLID_2_)" d="M-213.1 282.8h-17.6l8.8 15.2z"/><linearGradient id="XMLID_3_" gradientUnits="userSpaceOnUse" x1="-195.6" y1="306.26" x2="-178.061" y2="306.26" gradientTransform="matrix(1 0 0 -1 0 596.64)"><stop offset="0" stop-color="#d171ad"/><stop offset=".417" stop-color="#ce60a1"/><stop offset=".506" stop-color="#cd5b9f"/><stop offset="1" stop-color="#b83d8a"/></linearGradient><path id="XMLID_408_" fill="url(#XMLID_3_)" d="M-178.1 282.8h-17.5l8.8 15.2z"/><linearGradient id="XMLID_4_" gradientUnits="userSpaceOnUse" x1="-239.439" y1="306.26" x2="-221.9" y2="306.26" gradientTransform="matrix(1 0 0 -1 0 596.64)"><stop offset="0" stop-color="#84a4c2"/><stop offset=".5" stop-color="#6892b6"/><stop offset="1" stop-color="#2f75a0"/></linearGradient><path id="XMLID_407_" fill="url(#XMLID_4_)" d="M-230.7 282.8l-8.7 15.2h17.5z"/><linearGradient id="XMLID_5_" gradientUnits="userSpaceOnUse" x1="-171.314" y1="306.425" x2="-189.197" y2="305.191" gradientTransform="matrix(1 0 0 -1 0 596.64)"><stop offset="0" stop-color="#d171ad"/><stop offset=".417" stop-color="#ce60a1"/><stop offset=".506" stop-color="#cd5b9f"/><stop offset="1" stop-color="#b83d8a"/></linearGradient><path id="XMLID_406_" fill="url(#XMLID_5_)" d="M-178.1 282.8l-8.7 15.2h17.5z"/><linearGradient id="XMLID_6_" gradientUnits="userSpaceOnUse" x1="-221.9" y1="321.46" x2="-204.361" y2="321.46" gradientTransform="matrix(1 0 0 -1 0 596.64)"><stop offset="0" stop-color="#8fccd5"/><stop offset=".5" stop-color="#5bbac7"/><stop offset="1" stop-color="#00aab9"/></linearGradient><path id="XMLID_405_" fill="url(#XMLID_6_)" d="M-204.4 267.6h-17.5l8.8 15.2z"/><linearGradient id="XMLID_7_" gradientUnits="userSpaceOnUse" x1="-169.3" y1="321.46" x2="-151.761" y2="321.46" gradientTransform="matrix(1 0 0 -1 0 596.64)"><stop offset="0" stop-color="#832f75"/><stop offset=".989" stop-color="#bb87bc"/></linearGradient><path id="XMLID_404_" fill="url(#XMLID_7_)" d="M-151.7 267.6h-17.6l8.8 15.2z"/><linearGradient id="XMLID_8_" gradientUnits="userSpaceOnUse" x1="-204.361" y1="321.46" x2="-186.822" y2="321.46" gradientTransform="matrix(1 0 0 -1 0 596.64)"><stop offset="0" stop-color="#27aae1"/><stop offset=".202" stop-color="#759dd2"/><stop offset=".453" stop-color="#a28cc2"/><stop offset=".679" stop-color="#bd7fb7"/><stop offset=".869" stop-color="#cc75b0"/><stop offset="1" stop-color="#d171ad"/></linearGradient><path id="XMLID_403_" fill="url(#XMLID_8_)" d="M-186.8 267.6h-17.6l8.8 15.2z"/><linearGradient id="XMLID_9_" gradientUnits="userSpaceOnUse" x1="-230.67" y1="321.46" x2="-213.131" y2="321.46" gradientTransform="matrix(1 0 0 -1 0 596.64)"><stop offset="0" stop-color="#77b2c6"/><stop offset=".5" stop-color="#349ab4"/><stop offset="1" stop-color="#0089a6"/></linearGradient><path id="XMLID_402_" fill="url(#XMLID_9_)" d="M-221.9 267.6l-8.8 15.2h17.6z"/><linearGradient id="XMLID_10_" gradientUnits="userSpaceOnUse" x1="-213.131" y1="321.46" x2="-195.592" y2="321.46" gradientTransform="matrix(1 0 0 -1 0 596.64)"><stop offset="0" stop-color="#b1dae0"/><stop offset=".5" stop-color="#82c7d1"/><stop offset=".578" stop-color="#7ac4cf"/><stop offset=".827" stop-color="#64bcc9"/><stop offset="1" stop-color="#5bbac7"/></linearGradient><path id="XMLID_401_" fill="url(#XMLID_10_)" d="M-204.4 267.6l-8.7 15.2h17.5z"/><linearGradient id="XMLID_11_" gradientUnits="userSpaceOnUse" x1="-195.6" y1="321.46" x2="-178.061" y2="321.46" gradientTransform="matrix(1 0 0 -1 0 596.64)"><stop offset="0" stop-color="#ac2f92"/><stop offset=".989" stop-color="#d970ac"/></linearGradient><path id="XMLID_400_" fill="url(#XMLID_11_)" d="M-186.8 267.6l-8.8 15.2h17.5z"/><linearGradient id="XMLID_12_" gradientUnits="userSpaceOnUse" x1="-169.3" y1="301.148" x2="-169.3" y2="313.173" gradientTransform="matrix(1 0 0 -1 0 596.64)"><stop offset=".011" stop-color="#bb6cac"/><stop offset="1" stop-color="#973a87"/></linearGradient><path id="XMLID_399_" fill="url(#XMLID_12_)" d="M-178.1 282.8h17.6l-8.8 15.2z"/><linearGradient id="XMLID_13_" gradientUnits="userSpaceOnUse" x1="-178.053" y1="321.46" x2="-160.514" y2="321.46" gradientTransform="matrix(1 0 0 -1 0 596.64)"><stop offset="0" stop-color="#973a87"/><stop offset=".989" stop-color="#bb6cac"/></linearGradient><path id="XMLID_398_" fill="url(#XMLID_13_)" d="M-169.3 267.6l8.8 15.2h-17.6z"/><linearGradient id="XMLID_14_" gradientUnits="userSpaceOnUse" x1="-195.6" y1="291.06" x2="-178.061" y2="291.06" gradientTransform="matrix(1 0 0 -1 0 596.64)"><stop offset="0" stop-color="#d171ad"/><stop offset=".417" stop-color="#ce60a1"/><stop offset=".506" stop-color="#cd5b9f"/><stop offset="1" stop-color="#b83d8a"/></linearGradient><path id="XMLID_397_" fill="url(#XMLID_14_)" d="M-178.1 313.2h-17.5l8.8-15.2z"/><linearGradient id="XMLID_15_" gradientUnits="userSpaceOnUse" x1="-185.622" y1="291.06" x2="-174.487" y2="291.06" gradientTransform="matrix(1 0 0 -1 0 596.64)"><stop offset="0" stop-color="#d171ad"/><stop offset=".417" stop-color="#ce60a1"/><stop offset=".506" stop-color="#cd5b9f"/><stop offset="1" stop-color="#b83d8a"/></linearGradient><path id="XMLID_396_" fill="url(#XMLID_15_)" d="M-178.1 313.2l-8.7-15.2h17.5z"/><linearGradient id="XMLID_16_" gradientUnits="userSpaceOnUse" x1="-195.6" y1="275.86" x2="-178.061" y2="275.86" gradientTransform="matrix(1 0 0 -1 0 596.64)"><stop offset="0" stop-color="#ac2f92"/><stop offset=".989" stop-color="#d970ac"/></linearGradient><path id="XMLID_395_" fill="url(#XMLID_16_)" d="M-186.8 328.4l-8.8-15.2h17.5z"/><linearGradient id="XMLID_17_" gradientUnits="userSpaceOnUse" x1="-178.053" y1="291.06" x2="-160.514" y2="291.06" gradientTransform="matrix(1 0 0 -1 0 596.64)"><stop offset="0" stop-color="#973a87"/><stop offset=".989" stop-color="#bb6cac"/></linearGradient><path id="XMLID_394_" fill="url(#XMLID_17_)" d="M-178.1 313.2h17.6l-8.8-15.2z"/><linearGradient id="XMLID_18_" gradientUnits="userSpaceOnUse" x1="-178.053" y1="275.86" x2="-160.514" y2="275.86" gradientTransform="matrix(1 0 0 -1 0 596.64)"><stop offset="0" stop-color="#973a87"/><stop offset=".989" stop-color="#bb6cac"/></linearGradient><path id="XMLID_393_" fill="url(#XMLID_18_)" d="M-169.3 328.4l8.8-15.2h-17.6z"/><linearGradient id="XMLID_19_" gradientUnits="userSpaceOnUse" x1="-239.439" y1="291.06" x2="-221.9" y2="291.06" gradientTransform="matrix(1 0 0 -1 0 596.64)"><stop offset="0" stop-color="#5080b1"/><stop offset=".143" stop-color="#477bae"/><stop offset=".38" stop-color="#2a6fa5"/><stop offset=".584" stop-color="#00639b"/><stop offset="1" stop-color="#004e8c"/></linearGradient><path id="XMLID_388_" fill="url(#XMLID_19_)" d="M-239.4 298l8.7 15.2 8.8-15.2z"/><linearGradient id="XMLID_20_" gradientUnits="userSpaceOnUse" x1="-230.67" y1="291.06" x2="-213.131" y2="291.06" gradientTransform="matrix(1 0 0 -1 0 596.64)"><stop offset="0" stop-color="#84a4c2"/><stop offset=".5" stop-color="#6892b6"/><stop offset="1" stop-color="#2f75a0"/></linearGradient><path id="XMLID_386_" fill="url(#XMLID_20_)" d="M-230.7 313.2h17.6l-8.8-15.2z"/><linearGradient id="XMLID_21_" gradientUnits="userSpaceOnUse" x1="-230.67" y1="275.86" x2="-213.131" y2="275.86" gradientTransform="matrix(1 0 0 -1 0 596.64)"><stop offset="0" stop-color="#77b2c6"/><stop offset=".5" stop-color="#349ab4"/><stop offset="1" stop-color="#0089a6"/></linearGradient><path id="XMLID_384_" fill="url(#XMLID_21_)" d="M-230.7 313.2l8.8 15.2 8.8-15.2z"/><linearGradient id="XMLID_22_" gradientUnits="userSpaceOnUse" x1="-213.131" y1="275.86" x2="-195.592" y2="275.86" gradientTransform="matrix(1 0 0 -1 0 596.64)"><stop offset="0" stop-color="#b1dae0"/><stop offset=".5" stop-color="#82c7d1"/><stop offset=".578" stop-color="#7ac4cf"/><stop offset=".827" stop-color="#64bcc9"/><stop offset="1" stop-color="#5bbac7"/></linearGradient><path id="XMLID_339_" fill="url(#XMLID_22_)" d="M-213.1 313.2l8.7 15.2 8.8-15.2z"/><linearGradient id="XMLID_23_" gradientUnits="userSpaceOnUse" x1="-221.9" y1="275.86" x2="-204.361" y2="275.86" gradientTransform="matrix(1 0 0 -1 0 596.64)"><stop offset="0" stop-color="#8fccd5"/><stop offset=".5" stop-color="#5bbac7"/><stop offset="1" stop-color="#00aab9"/></linearGradient><path id="XMLID_333_" fill="url(#XMLID_23_)" d="M-221.9 328.4h17.5l-8.7-15.2z"/><linearGradient id="XMLID_24_" gradientUnits="userSpaceOnUse" x1="-204.361" y1="275.86" x2="-186.822" y2="275.86" gradientTransform="matrix(1 0 0 -1 0 596.64)"><stop offset="0" stop-color="#27aae1"/><stop offset=".141" stop-color="#64a2d7"/><stop offset=".422" stop-color="#9b8fc5"/><stop offset=".669" stop-color="#ba81b8"/><stop offset=".87" stop-color="#cb76b0"/><stop offset="1" stop-color="#d171ad"/></linearGradient><path id="XMLID_330_" fill="url(#XMLID_24_)" d="M-204.4 328.4h17.6l-8.8-15.2z"/><linearGradient id="XMLID_25_" gradientUnits="userSpaceOnUse" x1="-169.3" y1="275.86" x2="-151.761" y2="275.86" gradientTransform="matrix(1 0 0 -1 0 596.64)"><stop offset="0" stop-color="#832f75"/><stop offset=".989" stop-color="#bb87bc"/></linearGradient><path id="XMLID_329_" fill="url(#XMLID_25_)" d="M-169.3 328.4h17.6l-8.8-15.2z"/></svg>