<?xml version="1.0" encoding="UTF-8" standalone="no"?>
<svg
   xmlns:dc="http://purl.org/dc/elements/1.1/"
   xmlns:cc="http://creativecommons.org/ns#"
   xmlns:rdf="http://www.w3.org/1999/02/22-rdf-syntax-ns#"
   xmlns:svg="http://www.w3.org/2000/svg"
   xmlns="http://www.w3.org/2000/svg"
   xmlns:sodipodi="http://sodipodi.sourceforge.net/DTD/sodipodi-0.dtd"
   xmlns:inkscape="http://www.inkscape.org/namespaces/inkscape"
   height="32"
   viewBox="0 0 32 32"
   width="32"
   id="svg4136"
   version="1.1"
   inkscape:version="0.91 r13725"
   sodipodi:docname="close.svg">
  <metadata
     id="metadata4144">
    <rdf:RDF>
      <cc:Work
         rdf:about="">
        <dc:format>image/svg+xml</dc:format>
        <dc:type
           rdf:resource="http://purl.org/dc/dcmitype/StillImage" />
        <dc:title />
      </cc:Work>
    </rdf:RDF>
  </metadata>
  <defs
     id="defs4142" />
  <sodipodi:namedview
     pagecolor="#ffffff"
     bordercolor="#666666"
     borderopacity="1"
     objecttolerance="10"
     gridtolerance="10"
     guidetolerance="10"
     inkscape:pageopacity="0"
     inkscape:pageshadow="2"
     inkscape:window-width="1858"
     inkscape:window-height="1057"
     id="namedview4140"
     showgrid="true"
     inkscape:zoom="19.622214"
     inkscape:cx="-3.5540868"
     inkscape:cy="14.948171"
     inkscape:window-x="54"
     inkscape:window-y="-8"
     inkscape:window-maximized="1"
     inkscape:current-layer="svg4136">
    <inkscape:grid
       type="xygrid"
       id="grid4148"
       empspacing="4"
       dotted="false" />
  </sodipodi:namedview>
  <path
     d="m 17.800003,16.000001 9.839998,-9.8400009 c 0.479999,-0.48 0.479999,-1.2 0,-1.68 -0.479997,-0.4799999 -1.199999,-0.4799999 -1.679998,0 L 16.119999,14.320001 6.039998,4.3600002 c -0.4799961,-0.48 -1.2000002,-0.48 -1.6799982,0 -0.4799997,0.4799979 -0.4799997,1.1999979 0,1.6799979 L 14.32,16.000001 4.3599998,25.960003 c -0.4799997,0.479999 -0.4799997,1.200001 0,1.679998 0.479998,0.479998 1.2000021,0.479998 1.6799982,0 l 9.960002,-9.96 9.960003,9.96 c 0.479999,0.479999 1.200001,0.479999 1.679998,0 0.479999,-0.479997 0.479999,-1.199998 0,-1.679997 l -9.839998,-9.960003 z"
     id="path4138"
     inkscape:connector-curvature="0"
     style="fill:#000000" />
  <g
     inkscape:groupmode="layer"
     id="layer1"
     inkscape:label="Base"
     style="display:none">
    <circle
       style="opacity:1;fill:none;stroke:#000000;stroke-width:0.0501454;stroke-miterlimit:4;stroke-dasharray:none;stroke-opacity:1"
       id="path4140-7"
       cx="16"
       cy="16"
       r="16.000975" />
  </g>
</svg>
